<svg width="25" height="25" viewBox="0 0 25 25" fill="none" xmlns="http://www.w3.org/2000/svg">
<g clip-path="url(#clip0_41_965)">
<path d="M17.2222 12.8731C16.8266 12.8731 16.5059 12.5524 16.5059 12.1568L16.5059 8.82089L13.6765 11.6503C13.3968 11.93 12.9432 11.93 12.6635 11.6503C12.3837 11.3705 12.3837 10.917 12.6635 10.6372L15.4928 7.80783L12.1569 7.80783C11.7613 7.80783 11.4406 7.48711 11.4406 7.09148C11.4406 6.69586 11.7613 6.37514 12.1569 6.37514L17.2222 6.37514C17.6179 6.37514 17.9386 6.69586 17.9386 7.09148L17.9386 12.1568C17.9386 12.5524 17.6179 12.8731 17.2222 12.8731Z" fill="white"/>
<path d="M11.6504 13.6764C11.9301 13.3966 11.9301 12.9431 11.6504 12.6633C11.3707 12.3836 10.9171 12.3836 10.6373 12.6633C10.3576 12.9431 10.3576 13.3966 10.6373 13.6764C10.9171 13.9561 11.3707 13.9561 11.6504 13.6764Z" fill="white"/>
<path d="M9.62428 14.6895C9.90402 14.9692 9.90402 15.4228 9.62428 15.7025C9.34453 15.9823 8.89096 15.9823 8.61121 15.7025C8.33146 15.4228 8.33146 14.9692 8.61121 14.6895C8.89096 14.4097 9.34453 14.4097 9.62428 14.6895Z" fill="white"/>
<path d="M7.59815 17.7286C7.8779 17.4489 7.8779 16.9953 7.59815 16.7156C7.3184 16.4358 6.86484 16.4358 6.58509 16.7156C6.30534 16.9953 6.30534 17.4489 6.58509 17.7286C6.86484 18.0084 7.3184 18.0084 7.59815 17.7286Z" fill="white"/>
</g>
<defs>
<clipPath id="clip0_41_965">
<rect width="17.1922" height="17.1922" fill="white" transform="translate(0 12.1567) rotate(-45)"/>
</clipPath>
</defs>
</svg>
