<svg width="34" height="34" viewBox="0 0 34 34" fill="none" xmlns="http://www.w3.org/2000/svg">
<g clip-path="url(#clip0_41_1017)">
<path d="M24.0416 17.9706C23.4893 17.9706 23.0416 17.5229 23.0416 16.9706L23.0416 12.3137L19.0918 16.2635C18.7013 16.654 18.0682 16.654 17.6776 16.2635C17.2871 15.8729 17.2871 15.2398 17.6776 14.8493L21.6274 10.8995L16.9705 10.8995C16.4182 10.8995 15.9705 10.4518 15.9705 9.8995C15.9705 9.34722 16.4182 8.8995 16.9705 8.8995L24.0416 8.8995C24.5939 8.8995 25.0416 9.34722 25.0416 9.8995L25.0416 16.9706C25.0416 17.5229 24.5939 17.9706 24.0416 17.9706Z" fill="#4A3AFF"/>
<path d="M16.2634 19.0919C16.6539 18.7014 16.6539 18.0682 16.2634 17.6777C15.8729 17.2872 15.2397 17.2872 14.8492 17.6777C14.4587 18.0682 14.4587 18.7014 14.8492 19.0919C15.2397 19.4824 15.8729 19.4824 16.2634 19.0919Z" fill="#4A3AFF"/>
<path d="M13.435 20.5061C13.8255 20.8966 13.8255 21.5298 13.435 21.9203C13.0445 22.3108 12.4113 22.3108 12.0208 21.9203C11.6303 21.5298 11.6303 20.8966 12.0208 20.5061C12.4113 20.1156 13.0445 20.1156 13.435 20.5061Z" fill="#4A3AFF"/>
<path d="M10.6066 24.7487C10.9971 24.3582 10.9971 23.7251 10.6066 23.3345C10.216 22.944 9.58287 22.944 9.19235 23.3345C8.80182 23.7251 8.80182 24.3582 9.19235 24.7487C9.58287 25.1393 10.216 25.1393 10.6066 24.7487Z" fill="#4A3AFF"/>
</g>
<defs>
<clipPath id="clip0_41_1017">
<rect width="24" height="24" fill="white" transform="translate(0 16.9706) rotate(-45)"/>
</clipPath>
</defs>
</svg>
