<svg width="20" height="20" viewBox="0 0 20 20" fill="none" xmlns="http://www.w3.org/2000/svg">
<g clip-path="url(#clip0_41_1052)">
<path d="M14.0241 10.4829C13.702 10.4829 13.4408 10.2217 13.4408 9.89952L13.4408 7.18302L11.1368 9.48704C10.909 9.71485 10.5396 9.71485 10.3118 9.48704C10.084 9.25923 10.084 8.88989 10.3118 8.66208L12.6158 6.35806L9.89935 6.35806C9.57718 6.35806 9.31602 6.0969 9.31602 5.77473C9.31602 5.45256 9.57718 5.1914 9.89935 5.1914L14.0241 5.1914C14.3463 5.1914 14.6075 5.45256 14.6075 5.77473L14.6075 9.89952C14.6075 10.2217 14.3463 10.4829 14.0241 10.4829Z" fill="#4A3AFF"/>
<path d="M9.48687 11.137C9.71468 10.9092 9.71468 10.5398 9.48687 10.312C9.25906 10.0842 8.88972 10.0842 8.66191 10.312C8.43411 10.5398 8.43411 10.9092 8.66191 11.137C8.88972 11.3648 9.25906 11.3648 9.48687 11.137Z" fill="#4A3AFF"/>
<path d="M7.83695 11.9619C8.06476 12.1897 8.06476 12.5591 7.83695 12.7869C7.60915 13.0147 7.2398 13.0147 7.012 12.7869C6.78419 12.5591 6.78419 12.1897 7.012 11.9619C7.2398 11.7341 7.60915 11.7341 7.83695 11.9619Z" fill="#4A3AFF"/>
<path d="M6.18704 14.4368C6.41484 14.209 6.41484 13.8396 6.18704 13.6118C5.95923 13.384 5.58989 13.384 5.36208 13.6118C5.13428 13.8396 5.13428 14.209 5.36208 14.4368C5.58989 14.6646 5.95923 14.6646 6.18704 14.4368Z" fill="#4A3AFF"/>
</g>
<defs>
<clipPath id="clip0_41_1052">
<rect width="14" height="14" fill="white" transform="translate(0 9.89941) rotate(-45)"/>
</clipPath>
</defs>
</svg>
