<svg width="23" height="23" viewBox="0 0 23 23" fill="none" xmlns="http://www.w3.org/2000/svg">
<g clip-path="url(#clip0_41_997)">
<path d="M16.0277 11.9801C15.6595 11.9801 15.3611 11.6816 15.3611 11.3134V8.20882L12.7279 10.842C12.4675 11.1023 12.0454 11.1023 11.7851 10.842C11.5247 10.5816 11.5247 10.1595 11.7851 9.89918L14.4183 7.26601L11.3137 7.26601C10.9455 7.26601 10.647 6.96753 10.647 6.59934C10.647 6.23115 10.9455 5.93268 11.3137 5.93268L16.0277 5.93268C16.3959 5.93268 16.6944 6.23115 16.6944 6.59934V11.3134C16.6944 11.6816 16.3959 11.9801 16.0277 11.9801Z" fill="#4A3AFF"/>
<path d="M10.8423 12.7276C11.1026 12.4673 11.1026 12.0451 10.8423 11.7848C10.5819 11.5244 10.1598 11.5244 9.89947 11.7848C9.63912 12.0451 9.63912 12.4673 9.89947 12.7276C10.1598 12.988 10.5819 12.988 10.8423 12.7276Z" fill="#4A3AFF"/>
<path d="M8.95666 13.6704C9.21701 13.9308 9.21701 14.3529 8.95666 14.6132C8.69631 14.8736 8.2742 14.8736 8.01385 14.6132C7.7535 14.3529 7.7535 13.9308 8.01385 13.6704C8.2742 13.4101 8.69631 13.4101 8.95666 13.6704Z" fill="#4A3AFF"/>
<path d="M7.07104 16.4988C7.33139 16.2385 7.33139 15.8164 7.07104 15.556C6.81069 15.2957 6.38858 15.2957 6.12823 15.556C5.86788 15.8164 5.86788 16.2385 6.12823 16.4988C6.38858 16.7592 6.81069 16.7592 7.07104 16.4988Z" fill="#4A3AFF"/>
</g>
<defs>
<clipPath id="clip0_41_997">
<rect width="16" height="16" fill="white" transform="translate(0 11.3135) rotate(-45)"/>
</clipPath>
</defs>
</svg>
