<svg width="18" height="18" viewBox="0 0 18 18" fill="none" xmlns="http://www.w3.org/2000/svg">
<g clip-path="url(#clip0_0_726)">
<path d="M12.6672 9.4685C12.3762 9.4685 12.1403 9.2326 12.1403 8.94161L12.1403 6.48796L10.0592 8.56904C9.85348 8.77481 9.51988 8.77481 9.31411 8.56904C9.10835 8.36328 9.10835 8.02967 9.31411 7.82391L11.3952 5.74283L8.94155 5.74283C8.65055 5.74283 8.41466 5.50693 8.41466 5.21594C8.41466 4.92495 8.65055 4.68905 8.94155 4.68905L12.6672 4.68905C12.9582 4.68905 13.1941 4.92495 13.1941 5.21594V8.94161C13.1941 9.2326 12.9582 9.4685 12.6672 9.4685Z" fill="#4A3AFF"/>
<path d="M8.56898 10.0593C8.77474 9.85355 8.77474 9.51994 8.56898 9.31418C8.36322 9.10841 8.02961 9.10841 7.82385 9.31418C7.61808 9.51994 7.61808 9.85355 7.82385 10.0593C8.02961 10.2651 8.36322 10.2651 8.56898 10.0593Z" fill="#4A3AFF"/>
<path d="M7.07871 10.8044C7.28448 11.0102 7.28448 11.3438 7.07871 11.5496C6.87295 11.7553 6.53934 11.7553 6.33358 11.5496C6.12782 11.3438 6.12782 11.0102 6.33358 10.8044C6.53934 10.5987 6.87295 10.5987 7.07871 10.8044Z" fill="#4A3AFF"/>
<path d="M5.58845 13.0398C5.79421 12.8341 5.79421 12.5005 5.58845 12.2947C5.38268 12.0889 5.04907 12.0889 4.84331 12.2947C4.63755 12.5005 4.63755 12.8341 4.84331 13.0398C5.04907 13.2456 5.38268 13.2456 5.58845 13.0398Z" fill="#4A3AFF"/>
</g>
<defs>
<clipPath id="clip0_0_726">
<rect width="12.6453" height="12.6453" fill="white" transform="translate(0 8.94165) rotate(-45)"/>
</clipPath>
</defs>
</svg>
