<svg width="34" height="34" viewBox="0 0 34 34" fill="none" xmlns="http://www.w3.org/2000/svg">
<circle cx="17" cy="17" r="17" fill="#4A3AFF"/>
<path d="M15.0402 15.3934C15.0402 15.3934 15.0402 13.4903 15.0402 9.68395C15.0402 9.68395 16.2088 9.68395 18.546 9.68395C18.546 9.68395 18.546 11.5871 18.546 15.3934C18.546 15.3934 20.4206 15.3934 24.1696 15.3934C24.1696 15.3934 24.1696 16.5477 24.1696 18.8563C24.1696 18.8563 22.2951 18.8563 18.546 18.8563C18.546 18.8563 18.546 20.7594 18.546 24.5657C18.546 24.5657 17.3774 24.5657 15.0402 24.5657C15.0402 24.5657 15.0402 22.6626 15.0402 18.8563C15.0402 18.8563 13.1609 18.8563 9.40232 18.8563C9.40232 18.8563 9.40232 17.702 9.40232 15.3934C9.40232 15.3934 11.2816 15.3934 15.0402 15.3934Z" fill="white"/>
</svg>
