<svg width="526" height="499" viewBox="0 0 526 499" fill="none" xmlns="http://www.w3.org/2000/svg">
<path d="M454.779 462.809H495.474V462.502H454.779V462.809Z" fill="#E5E6E5"/>
<path d="M262.567 458.958H278.4V458.651H262.567V458.958Z" fill="#E5E6E5"/>
<path d="M338.978 460.257H372.324V459.95H338.978V460.257Z" fill="#E5E6E5"/>
<path d="M384.61 451.4H453.55V451.093H384.61V451.4Z" fill="#E5E6E5"/>
<path d="M7.16357 465.614H39.7549V465.307H7.16357V465.614Z" fill="#E5E6E5"/>
<path d="M50.6943 465.614H78.9528V465.307H50.6943V465.614Z" fill="#E5E6E5"/>
<path d="M103.662 458.805H178.38V458.497H103.662V458.805Z" fill="#E5E6E5"/>
<path d="M516.559 211.464C520.559 197.6 519.825 183.501 515.342 170.865C518.846 165.848 521.611 160.191 523.403 153.981C531.63 125.456 516.627 95.7417 489.568 85.0474C484.347 47.6786 457.824 15.0155 419.227 3.8828C388.712 -4.91781 357.419 1.69931 333.627 19.1052C327.674 12.8741 320.053 8.07729 311.175 5.51688C284.414 -2.20137 256.463 13.2363 248.745 39.9974C247.455 44.472 246.825 48.9796 246.774 53.4223C219.845 58.8472 196.782 78.6968 188.644 106.917C181.332 132.268 187.803 158.322 203.623 177.083C201.578 180.777 199.9 184.746 198.68 188.976C189.919 219.354 207.443 251.086 237.822 259.846C247.839 262.736 257.997 262.752 267.437 260.405C278.605 275.805 294.782 287.745 314.475 293.425C339.816 300.734 365.755 296.187 386.401 283.086C395.64 304.581 403.237 336.818 386.889 368.43C446.286 362.604 489.179 305.631 480.437 253.434C497.387 245.633 510.984 230.8 516.559 211.464Z" fill="#E5E6E5"/>
<path d="M390.874 267.378C390.996 267.378 391.118 267.396 391.237 267.433C391.581 267.539 391.859 267.791 392.002 268.123L396.558 278.719C404.393 296.94 411.981 324.539 404.384 353.584C422.821 347.7 439.521 335.876 451.596 320.111C466.612 300.502 473.15 276.865 469.532 255.26L468.29 247.849C468.199 247.301 468.485 246.761 468.988 246.53L475.815 243.389C490.492 236.634 501.471 223.882 505.937 208.4C509.161 197.221 508.81 185.52 504.921 174.563L503.229 169.794C503.097 169.422 503.153 169.007 503.381 168.681L506.278 164.532C509.185 160.37 511.373 155.789 512.778 150.917C519.392 127.987 507.667 104.09 485.505 95.3313L480.175 93.2241C479.764 93.0624 479.471 92.6906 479.411 92.2522L478.619 86.5785C473.837 52.3611 449.322 24.0718 416.163 14.5083C408.224 12.2177 400.056 11.0579 391.885 11.0579C373.486 11.0579 355.115 17.0869 340.156 28.0306L333.2 33.1184C332.701 33.4833 332.012 33.4207 331.585 32.976L325.631 26.7444C320.846 21.7335 314.786 18.0673 308.11 16.1418C304.534 15.1101 300.856 14.5868 297.177 14.5868C279.752 14.5868 264.205 26.2969 259.37 43.0628C258.389 46.4608 257.872 49.9886 257.831 53.5482L257.742 61.5016C257.736 62.0806 257.325 62.5771 256.755 62.6927L248.959 64.2624C225.054 69.0763 206.014 86.5956 199.268 109.981C193.243 130.876 198.03 153.297 212.078 169.955L216.441 175.128C216.77 175.518 216.823 176.069 216.577 176.515L213.299 182.439C211.603 185.5 210.26 188.732 209.305 192.041C205.886 203.894 207.288 216.371 213.253 227.172C219.218 237.973 229.033 245.804 240.887 249.223C248.687 251.47 256.936 251.623 264.771 249.675L271.205 248.075C271.69 247.952 272.202 248.139 272.497 248.547L276.389 253.914C286.599 267.991 300.829 277.981 317.54 282.801C324.558 284.825 331.777 285.851 339.001 285.851C353.659 285.851 368 281.666 380.475 273.749L390.216 267.568C390.415 267.443 390.643 267.378 390.874 267.378ZM402.609 356.64C402.29 356.64 401.976 356.515 401.743 356.283C401.425 355.967 401.306 355.503 401.429 355.072C409.795 325.932 402.171 297.994 394.302 279.689L390.314 270.416L381.793 275.825C368.922 283.991 354.125 288.308 339.001 288.308C331.547 288.308 324.097 287.25 316.859 285.162C299.617 280.189 284.935 269.882 274.4 255.356L270.993 250.66L265.364 252.059C257.111 254.111 248.419 253.95 240.206 251.584C227.722 247.983 217.385 239.735 211.102 228.359C204.819 216.984 203.343 203.844 206.943 191.358C207.949 187.873 209.365 184.471 211.148 181.248L214.016 176.066L210.199 171.538C195.623 154.253 190.653 130.985 196.908 109.299C203.907 85.0293 223.666 66.849 248.473 61.8534L255.296 60.4796L255.375 53.5197C255.417 49.7392 255.967 45.9916 257.009 42.3807C262.145 24.5689 278.663 12.1295 297.177 12.1295C301.086 12.1295 304.996 12.6846 308.792 13.7806C315.885 15.8263 322.323 19.7225 327.408 25.0471L332.619 30.4988L338.706 26.0475C354.082 14.7969 372.968 8.60059 391.885 8.60059C400.286 8.60059 408.684 9.7934 416.844 12.1466C450.932 21.9794 476.137 51.0624 481.051 86.238L481.746 91.2028L486.408 93.047C509.753 102.273 522.106 127.445 515.14 151.599C513.659 156.731 511.355 161.555 508.293 165.939L505.758 169.569L507.237 173.742C511.298 185.186 511.665 197.405 508.297 209.082C503.634 225.25 492.169 238.568 476.842 245.62L470.87 248.37L471.955 254.855C475.686 277.128 468.976 301.457 453.546 321.606C440.694 338.386 422.728 350.811 402.954 356.591C402.84 356.624 402.725 356.64 402.609 356.64Z" fill="#FEFEFE"/>
<path d="M281.027 155.963L316.299 161.454L311.455 192.566L276.184 187.074L281.027 155.963ZM316.45 152.51L283.516 147.383L284.029 144.092C284.902 138.487 286.245 134.037 288.061 130.738C289.875 127.44 292.266 124.544 295.227 122.045C298.191 119.548 304.63 115.343 314.545 109.431C319.82 106.346 322.704 103.215 323.197 100.038C323.693 96.8602 323.139 94.2446 321.535 92.1892C319.931 90.1349 317.224 88.8106 313.41 88.2167C309.308 87.5774 305.702 88.4075 302.593 90.7026C299.483 93.0028 297.026 97.47 295.224 104.114L262.246 94.72C265.326 82.5357 271.366 73.283 280.371 66.9625C289.373 60.6415 301.963 58.741 318.14 61.2598C330.735 63.219 340.494 67.4334 347.417 73.895C356.827 82.6364 360.608 92.9339 358.765 104.775C357.999 109.687 355.904 114.213 352.478 118.354C349.051 122.496 342.638 127.208 333.235 132.49C326.679 136.205 322.418 139.342 320.451 141.906C318.485 144.468 317.15 148.005 316.45 152.51Z" fill="#FEFEFE"/>
<path d="M377.644 190.26L397.227 206.123L383.235 223.395L363.653 207.532L377.644 190.26ZM400.491 200.717L382.206 185.907L383.687 184.078C386.208 180.966 388.607 178.727 390.884 177.358C393.162 175.987 395.647 175.067 398.343 174.594C401.036 174.12 406.459 173.836 414.608 173.745C418.923 173.733 421.792 172.844 423.222 171.08C424.651 169.317 425.239 167.523 424.99 165.7C424.741 163.876 423.557 162.109 421.44 160.394C419.162 158.548 416.667 157.775 413.956 158.074C411.242 158.375 408.157 160.23 404.7 163.648L387.902 146.215C394.103 139.87 401.074 136.364 408.811 135.701C416.548 135.034 424.907 138.339 433.889 145.615C440.883 151.279 445.344 157.312 447.278 163.713C449.921 172.387 448.577 180.013 443.252 186.587C441.043 189.314 438.158 191.334 434.598 192.647C431.037 193.96 425.451 194.562 417.838 194.45C412.519 194.392 408.805 194.795 406.695 195.664C404.585 196.53 402.517 198.214 400.491 200.717Z" fill="#FEFEFE"/>
<path d="M394.546 85.2207L403.021 96.7946L392.813 104.27L384.337 92.6958L394.546 85.2207ZM405.602 94.2917L397.688 83.4858L398.768 82.6961C400.608 81.3484 402.252 80.4636 403.705 80.0412C405.158 79.6187 406.66 79.4724 408.211 79.6011C409.763 79.7326 412.79 80.3629 417.288 81.4959C419.663 82.1148 421.373 82.0436 422.416 81.2807C423.458 80.5155 424.042 79.6147 424.171 78.5751C424.297 77.536 423.902 76.3899 422.986 75.1401C422.001 73.793 420.739 73.0045 419.203 72.7762C417.666 72.5473 415.699 73.1212 413.299 74.4996L406.585 62.4667C410.919 59.8756 415.264 58.9566 419.62 59.7144C423.975 60.4711 428.096 63.5035 431.983 68.8111C435.01 72.9447 436.591 76.9126 436.725 80.7165C436.921 85.8743 435.076 89.8763 431.19 92.7231C429.577 93.9034 427.698 94.5952 425.546 94.8019C423.396 95.0068 420.234 94.528 416.06 93.3608C413.141 92.5575 411.037 92.2397 409.751 92.4117C408.464 92.5831 407.081 93.2094 405.602 94.2917Z" fill="#FEFEFE"/>
<path d="M60.3238 63.7941C49.227 63.7941 38.4023 67.4534 29.3922 74.4554C13.6368 86.6984 6.53576 107.143 11.3036 126.539C11.3861 126.878 11.2808 127.234 11.0291 127.472C0.142972 137.738 -1.1341 154.402 8.05937 166.233C10.0128 168.747 12.3546 170.909 15.0181 172.659C15.2783 172.83 15.44 173.116 15.4525 173.426C15.7281 180.517 18.1758 187.228 22.5325 192.834C28.5643 200.597 37.6684 205.339 47.5109 205.847C47.9454 205.87 48.3109 206.18 48.4025 206.605C51.1178 219.104 59.6958 230.456 71.9376 237.753C84.5626 245.278 99.5226 247.543 113.255 244.072C100.071 231.738 97.6204 215.002 97.9364 202.954C97.9438 202.671 98.0753 202.406 98.2939 202.23C98.5154 202.053 98.7989 201.982 99.0791 202.031C111.84 204.428 125.027 201.242 135.259 193.291C143.3 187.044 148.87 178.523 151.366 168.651C151.462 168.269 151.78 167.985 152.17 167.932C157.197 167.242 161.975 165.23 165.989 162.112C178.608 152.304 180.897 134.058 171.091 121.44C169.767 119.736 168.234 118.165 166.533 116.774C166.224 116.521 166.104 116.104 166.229 115.725C170.331 103.376 168.023 89.8805 160.051 79.624C151.132 68.1452 136.694 62.6468 122.369 65.2642C121.92 65.3473 121.477 65.1042 121.304 64.684C120.429 62.562 119.275 60.5715 117.873 58.7667C113.708 53.4061 107.703 49.9882 100.966 49.1433C94.2298 48.2927 87.5672 50.1272 82.2066 54.2921C78.6641 57.0455 75.9083 60.6957 74.2361 64.8474C74.0556 65.2972 73.5666 65.5415 73.102 65.4208C68.8608 64.331 64.5718 63.7941 60.3238 63.7941ZM100.387 247.589C90.2283 247.589 80.0083 244.806 70.9509 239.409C58.4837 231.98 49.6734 220.463 46.6797 207.727C36.5593 207 27.236 202.03 21.0095 194.017C16.5058 188.22 13.9312 181.308 13.5486 173.994C10.8766 172.179 8.51941 169.967 6.5369 167.416C-3.15362 154.945 -1.93633 137.437 9.30001 126.459C4.61531 106.484 12.0005 85.5277 28.2096 72.9341C40.9246 63.0522 57.1206 59.5803 72.774 63.3534C74.5948 59.2056 77.4342 55.5589 81.0235 52.7702C86.7911 48.2893 93.9582 46.3221 101.206 47.2286C108.454 48.139 114.914 51.8165 119.396 57.5835C120.746 59.3224 121.883 61.2206 122.78 63.2367C137.566 60.8164 152.37 66.5931 161.575 78.4409C169.805 89.0327 172.285 102.918 168.262 115.705C169.873 117.082 171.335 118.609 172.614 120.256C183.072 133.715 180.631 153.174 167.171 163.633C163.063 166.826 158.2 168.933 153.073 169.747C150.396 179.773 144.655 188.431 136.442 194.813C126.074 202.871 112.796 206.235 99.8431 204.124C99.7127 216.06 102.487 232.241 115.846 243.81C116.113 244.039 116.232 244.399 116.157 244.744C116.081 245.09 115.823 245.365 115.484 245.463C110.572 246.888 105.487 247.588 100.387 247.589Z" fill="#E0E1E0"/>
<path d="M49.8155 153.498L67.9924 149.218L71.7667 165.251L53.5904 169.532L49.8155 153.498ZM66.3054 144.855L49.3339 148.85L48.9342 147.153C48.2544 144.265 48.0295 141.842 48.2606 139.887C48.4912 137.931 49.0799 136.057 50.0245 134.264C50.9685 132.47 53.2625 129.164 56.9052 124.348C58.8541 121.814 59.6359 119.729 59.2499 118.091C58.865 116.455 58.081 115.296 56.9001 114.615C55.7181 113.935 54.1455 113.825 52.1801 114.289C50.0655 114.787 48.4815 115.897 47.4265 117.623C46.3709 119.348 46.0595 121.997 46.4933 125.573L28.6598 127.509C27.7557 120.998 28.8625 115.325 31.9832 110.488C35.1021 105.652 40.831 102.254 49.167 100.291C55.6583 98.7625 61.2176 98.8843 65.8448 100.654C72.1254 103.04 75.9851 107.286 77.4227 113.388C78.0182 115.92 77.893 118.526 77.0481 121.208C76.2009 123.891 74.0202 127.437 70.5016 131.847C68.0556 134.937 66.6071 137.296 66.1585 138.925C65.7098 140.555 65.7588 142.532 66.3054 144.855Z" fill="#E5E6E5"/>
<path d="M96.3699 108.444L108.984 112.279L105.6 123.405L92.9873 119.569L96.3699 108.444ZM109.502 109.017L97.7249 105.435L98.0825 104.258C98.6923 102.254 99.4142 100.696 100.248 99.5841C101.084 98.4727 102.107 97.5367 103.32 96.7772C104.533 96.0165 107.106 94.8124 111.037 93.1635C113.126 92.31 114.342 91.3131 114.687 90.1783C115.033 89.0419 114.966 88.0563 114.486 87.2205C114.007 86.3881 113.085 85.7624 111.722 85.3484C110.253 84.9026 108.892 85.0193 107.636 85.6974C106.38 86.3767 105.25 87.8838 104.248 90.2199L92.6753 85.0757C94.4323 80.7804 97.1208 77.7088 100.74 75.8646C104.36 74.0187 109.061 73.976 114.847 75.7354C119.352 77.1041 122.702 79.151 124.899 81.8725C127.887 85.5574 128.736 89.5184 127.448 93.7522C126.914 95.5075 125.913 97.055 124.447 98.393C122.978 99.7293 120.389 101.12 116.678 102.565C114.088 103.583 112.367 104.51 111.515 105.346C110.663 106.181 109.992 107.405 109.502 109.017Z" fill="#E5E6E5"/>
<path d="M488.088 484.303C488.088 491.986 381.435 498.215 249.869 498.215C118.305 498.215 11.6504 491.986 11.6504 484.303C11.6504 476.619 118.305 470.391 249.869 470.391C381.435 470.391 488.088 476.619 488.088 484.303Z" fill="#EFEFEF"/>
<path d="M135.875 262.835C133.492 257.598 129.06 254.295 123.061 253.283L123.265 252.071C129.686 253.154 134.433 256.701 136.993 262.327L135.875 262.835ZM136.359 276.909L135.227 276.429C136.243 274.028 136.828 272.037 137.013 270.341L138.235 270.476C138.035 272.292 137.421 274.395 136.359 276.909Z" fill="#4A3AFF"/>
<path d="M118.404 298.172L131.35 292.279L136.548 303.697L123.602 309.593L118.404 298.172ZM129.442 289.269L117.353 294.77L116.804 293.563C115.867 291.505 115.34 289.729 115.223 288.234C115.105 286.738 115.266 285.251 115.706 283.769C116.146 282.29 117.368 279.48 119.376 275.341C120.457 273.157 120.731 271.485 120.2 270.319C119.67 269.153 118.913 268.403 117.928 268.07C116.944 267.735 115.754 267.888 114.353 268.526C112.848 269.21 111.828 270.278 111.296 271.721C110.764 273.167 110.924 275.195 111.779 277.802L98.741 281.893C97.0996 277.162 97.0848 272.758 98.6989 268.683C100.312 264.606 104.088 261.217 110.026 258.514C114.649 256.41 118.82 255.675 122.541 256.31C127.588 257.162 131.101 259.762 133.08 264.109C133.901 265.912 134.194 267.878 133.959 270.007C133.726 272.135 132.622 275.109 130.647 278.926C129.279 281.598 128.546 283.576 128.453 284.86C128.36 286.145 128.689 287.614 129.442 289.269Z" fill="#4A3AFF"/>
<path d="M95.3946 326.853L101.98 317.913L109.867 323.723L103.28 332.663L95.3946 326.853ZM99.535 316.586L93.3842 324.934L92.5501 324.319C91.1295 323.272 90.0956 322.262 89.4465 321.286C88.7974 320.312 88.3419 319.236 88.0794 318.059C87.8164 316.883 87.5813 314.503 87.3763 310.917C87.2829 309.018 86.8343 307.773 86.0286 307.179C85.2235 306.586 84.4224 306.363 83.6253 306.51C82.8277 306.656 82.0721 307.212 81.361 308.18C80.5941 309.22 80.3054 310.333 80.491 311.521C80.6778 312.711 81.5574 314.03 83.1311 315.483L75.7978 323.229C72.8792 320.628 71.1951 317.631 70.7464 314.239C70.2972 310.845 71.5834 307.1 74.6033 302.999C76.9564 299.806 79.522 297.72 82.2993 296.74C86.0639 295.4 89.4476 295.837 92.4504 298.048C93.6951 298.966 94.6425 300.194 95.2921 301.735C95.9423 303.276 96.3192 305.724 96.4251 309.076C96.5071 311.419 96.7593 313.046 97.1847 313.956C97.6083 314.869 98.3923 315.744 99.535 316.586Z" fill="#4A3AFF"/>
<path d="M230.319 479.876C228.325 479.876 226.4 478.791 225.421 476.898C220.484 467.36 214.28 456.167 203.116 444.053C201.81 442.637 201.339 440.642 201.872 438.792C206.019 424.403 212.526 404.735 212.591 404.539C213.548 401.647 216.667 400.084 219.555 401.04C222.444 401.997 224.011 405.115 223.054 408.004C222.994 408.186 217.389 425.128 213.32 438.912C223.581 450.55 229.907 461.59 235.209 471.831C236.608 474.534 235.552 477.86 232.849 479.258C232.038 479.678 231.173 479.876 230.319 479.876Z" fill="#4A3AFF"/>
<path d="M239.501 484.303H196.758L219.409 471.454L238.397 472.189L239.501 484.303Z" fill="#1E1E1E"/>
<path d="M262.665 399.767C262.811 416.888 246.636 432.363 226.539 434.332C206.439 436.301 190.028 424.018 189.881 406.898C189.735 389.777 205.91 374.303 226.009 372.334C246.107 370.364 262.519 382.648 262.665 399.767Z" fill="#1E1E1E"/>
<path d="M129.037 383.239C126.874 383.24 124.822 381.959 123.942 379.837C122.778 377.024 124.113 373.8 126.925 372.635C130.126 371.309 130.571 368.036 130.574 368.004C130.806 365.541 132.649 363.533 135.084 363.096C136.397 362.857 137.665 362.487 139.134 362.058C146.602 359.876 155.85 357.172 184.975 365.328C213.702 349.263 214.028 319.135 214.028 317.835C214.027 314.798 216.483 312.324 219.52 312.314H219.539C222.567 312.314 225.031 314.749 225.049 317.78C225.06 319.38 224.882 357.198 188.138 376.139C186.886 376.784 185.438 376.928 184.084 376.534C156.323 368.518 148.506 370.802 142.227 372.637C141.671 372.799 141.108 372.965 140.531 373.125C139.171 376.622 136.34 380.665 131.144 382.819C130.454 383.105 129.739 383.239 129.037 383.239Z" fill="#1E1E1E"/>
<path d="M193.451 343.812C183.001 302.254 155.138 195.073 244.399 188.52C324.479 182.641 346.458 289.231 351.8 326.158C354.913 347.68 355.959 367.199 356.142 382.453C356.377 402.129 342.553 419.097 323.268 423.013C279.639 431.874 238.35 433.134 210.544 422.16C203.025 419.191 198.476 411.53 199.2 403.479C200.272 391.541 200.291 371.01 193.451 343.812Z" fill="#4A3AFF"/>
<path d="M334.974 418.719C346.34 412.454 354.233 401.065 355.841 387.929H355.845C354.236 401.067 346.343 412.458 334.974 418.719ZM355.882 387.622H355.878C356.072 385.926 356.163 384.201 356.142 382.453C355.991 369.805 355.245 354.224 353.22 337C355.249 354.227 355.993 369.808 356.146 382.45C356.167 384.198 356.076 385.925 355.882 387.622Z" fill="#DDE0DF"/>
<path d="M355.845 387.929H355.841C355.853 387.828 355.866 387.726 355.878 387.623H355.882C355.87 387.726 355.857 387.828 355.845 387.929Z" fill="#CBCECE"/>
<path d="M281.568 429.102C270.484 406.271 283.22 390.056 285.727 369.748C291.231 325.111 254.784 243.198 239.5 219.498C234.866 212.315 234.766 205.049 237.861 199.057C241.294 192.408 248.352 188.512 255.77 188.512C256.381 188.512 256.995 188.539 257.61 188.592C326.952 194.639 346.763 291.355 351.797 326.155C352.329 329.832 352.803 333.451 353.221 337.001C355.245 354.224 355.991 369.805 356.142 382.453C356.163 384.201 356.072 385.926 355.878 387.623C355.866 387.726 355.853 387.828 355.841 387.93C354.233 401.065 346.34 412.455 334.974 418.719C331.389 420.695 327.458 422.158 323.268 423.007C308.978 425.92 294.948 427.997 281.568 429.102Z" fill="#2515D7"/>
<path d="M339.853 383.004C339.553 383.004 339.305 382.761 339.303 382.459C339.075 363.474 337.616 344.559 334.966 326.238C321.697 234.517 285.974 188.129 231.641 192.131C231.346 192.167 231.073 191.926 231.052 191.623C231.03 191.319 231.258 191.054 231.561 191.033C286.545 186.977 322.692 233.694 336.057 326.079C338.714 344.448 340.177 363.413 340.405 382.448C340.408 382.751 340.164 383.001 339.861 383.004H339.853Z" fill="#1E1E1E"/>
<path d="M366.274 402.706C366.421 419.826 350.246 435.302 330.148 437.27C310.048 439.239 293.638 426.956 293.491 409.836C293.344 392.717 309.519 377.241 329.618 375.273C349.716 373.303 366.128 385.586 366.274 402.706Z" fill="#1E1E1E"/>
<path d="M342.379 479.876C340.385 479.876 338.46 478.791 337.481 476.898C332.544 467.36 326.341 456.168 315.176 444.053C313.872 442.636 313.399 440.642 313.934 438.792C318.08 424.403 324.586 404.735 324.651 404.539C325.608 401.647 328.722 400.076 331.616 401.039C334.506 401.997 336.073 405.115 335.115 408.003C335.054 408.186 329.449 425.128 325.38 438.912C335.643 450.55 341.968 461.59 347.269 471.831C348.669 474.534 347.612 477.86 344.909 479.258C344.098 479.678 343.233 479.876 342.379 479.876Z" fill="#4A3AFF"/>
<path d="M330.806 311.886C328.823 311.886 326.908 310.814 325.921 308.935C324.51 306.246 325.541 302.921 328.225 301.502C329.288 300.937 353.283 287.821 360.019 256.325C344.022 249.635 315.269 234.531 308.982 226.94C308.374 226.205 307.966 225.324 307.8 224.383C307.652 223.554 306.618 217.038 309.03 210.866L306.128 205.262C304.729 202.558 305.785 199.233 308.488 197.834C311.191 196.438 314.517 197.489 315.917 200.194L320.091 208.256C320.983 209.98 320.903 212.046 319.879 213.697C318.56 215.821 318.397 218.933 318.504 220.96C325.584 227.356 354.185 242.514 368.174 247.708C370.629 248.619 372.103 251.132 371.702 253.718C365.471 293.977 334.67 310.568 333.363 311.254C332.546 311.684 331.67 311.886 330.806 311.886Z" fill="#1E1E1E"/>
<path d="M313.224 226.18C312.707 226.18 312.185 226.035 311.719 225.732C310.446 224.899 310.087 223.191 310.919 221.917C311.11 221.626 315.666 214.754 322.595 212.898C324.063 212.501 325.577 213.377 325.97 214.846C326.364 216.317 325.492 217.827 324.021 218.22C319.183 219.518 315.569 224.877 315.533 224.931C315.004 225.741 314.124 226.18 313.224 226.18Z" fill="#1E1E1E"/>
<path d="M351.56 484.303H308.817L331.468 471.454L350.458 472.189L351.56 484.303Z" fill="#1E1E1E"/>
<path d="M288.986 290.762C290.274 305.315 278.21 318.274 262.04 319.705C245.87 321.135 231.717 310.499 230.429 295.946C229.141 281.393 241.205 268.435 257.375 267.004C273.546 265.573 287.698 276.211 288.986 290.762Z" fill="#FEFEFE"/>
<path d="M260.311 293.713C262.533 301.515 260.859 308.832 256.568 310.055C252.279 311.278 246.998 305.943 244.775 298.139C242.552 290.337 244.227 283.02 248.517 281.798C252.806 280.574 258.086 285.909 260.311 293.713Z" fill="#1E1E1E"/>
<path d="M226.273 298.315C244.828 295.927 281.569 285.455 287.631 281.231C282.854 267.269 260.652 255.329 240.786 262.053C222.879 268.116 226.273 298.315 226.273 298.315Z" fill="#1E1E1E"/>
<path d="M229.884 307.283C252.911 302.907 282.854 295.559 291.419 290.851C290.891 305.874 286.529 321.093 263.014 326.238C243.802 330.44 229.884 307.283 229.884 307.283Z" fill="#1E1E1E"/>
<path d="M217.911 305.864C218.604 317.623 210.377 325.698 199.536 323.903C188.694 322.109 179.345 311.122 178.651 299.363C177.959 287.606 186.185 279.53 197.027 281.325C207.868 283.121 217.218 294.106 217.911 305.864Z" fill="#FEFEFE"/>
<path d="M198.68 303.007C200.079 309.589 198.87 315.08 195.986 315.271C193.1 315.462 189.626 310.282 188.23 303.7C186.831 297.116 188.039 291.627 190.924 291.434C193.81 291.244 197.282 296.425 198.68 303.007Z" fill="#1E1E1E"/>
<path d="M175.841 300.487C188.29 301.956 213.008 300.318 217.115 298.07C214.08 286.149 199.356 272.671 185.979 274.4C173.921 275.959 175.841 300.487 175.841 300.487Z" fill="#1E1E1E"/>
<path d="M178.154 308.244C193.62 308.947 213.751 308.552 219.539 306.375C219.011 318.177 215.914 329.439 200.112 329.255C187.201 329.103 178.154 308.244 178.154 308.244Z" fill="#1E1E1E"/>
<path d="M267.178 254.623C243.975 254.623 228.547 243.16 227.791 242.587C225.365 240.746 224.89 237.29 226.729 234.863C228.566 232.445 232.013 231.967 234.436 233.793C234.703 233.989 253.03 247.352 278.469 242.531C281.461 241.969 284.344 243.929 284.911 246.919C285.477 249.909 283.512 252.792 280.523 253.36C275.849 254.247 271.384 254.623 267.178 254.623Z" fill="#1E1E1E"/>
<path d="M168.629 245.122C168.01 245.124 167.381 245.018 166.766 244.797C163.902 243.767 162.414 240.611 163.444 237.747C166.366 229.615 171.21 224.333 177.843 222.054C189.868 217.912 202.818 225.963 203.362 226.309C205.936 227.935 206.704 231.338 205.078 233.911C203.457 236.478 200.062 237.25 197.491 235.636C194.983 234.076 187.203 230.469 181.396 232.487C178.049 233.649 175.57 236.591 173.816 241.473C173.008 243.722 170.889 245.122 168.629 245.122Z" fill="#1E1E1E"/>
<path d="M212.065 338.105C211.913 338.105 211.759 338.084 211.605 338.039C210.738 337.786 210.232 336.892 210.474 336.02C210.516 335.87 211.551 332.301 216.079 329.966C222.402 326.704 232.036 327.379 244.717 331.97C245.575 332.28 246.019 333.23 245.709 334.088C245.397 334.947 244.449 335.394 243.592 335.08C229.051 329.813 221.503 330.951 217.73 332.836C214.437 334.479 213.684 336.827 213.653 336.927C213.435 337.639 212.777 338.105 212.065 338.105Z" fill="#1E1E1E"/>
<path d="M160.034 332.052C127.966 334.932 105.008 348.21 105.008 348.21C114.505 346.416 148.447 388.418 157.174 420.815C173.272 414.845 192.045 410.781 212.066 407.605C199.94 374.216 177.764 336.393 160.034 332.052Z" fill="#4A3AFF"/>
<path d="M157.174 420.815C153.531 407.292 145.497 392.1 136.679 379.113C134.47 375.858 132.207 372.738 129.956 369.822C125.262 363.744 120.606 358.537 116.497 354.75C128.837 349.873 146.843 344.487 155.484 343.453C153.425 341.549 152.608 339.809 152.61 338.288C152.615 334.942 156.585 332.663 160.034 332.052C177.764 336.393 199.94 374.216 212.067 407.605C207.885 408.269 203.755 408.972 199.695 409.721C196.532 410.306 193.413 410.918 190.34 411.565C178.464 414.064 167.29 417.063 157.174 420.815Z" fill="#EFEFEF"/>
<path d="M160.034 332.052C139.048 329.683 104.976 347.253 104.976 347.253C98.9399 351.101 100.579 358.324 103.873 361.369C107.033 356.836 142.247 345.036 155.483 343.453C148.896 337.36 155.016 332.941 160.034 332.052Z" fill="#4A3AFF"/>
<path d="M103.873 361.369C102.177 359.802 100.921 357.128 100.923 354.378C100.925 351.784 102.047 349.121 104.976 347.253C104.976 347.253 134.881 331.832 155.914 331.832C157.331 331.832 158.709 331.902 160.034 332.052C156.585 332.663 152.614 334.942 152.609 338.288C152.608 339.809 153.425 341.549 155.483 343.453C146.843 344.487 128.836 349.873 116.496 354.75C109.931 357.346 104.97 359.796 103.873 361.369Z" fill="#BABABA"/>
<path d="M129.04 383.239C127.239 383.239 125.476 382.358 124.419 380.739C120.422 374.615 122.919 365.271 123.46 363.459C124.331 360.543 127.4 358.886 130.318 359.758C133.231 360.627 134.888 363.692 134.024 366.605C133.123 369.688 132.942 373.629 133.65 374.716C135.313 377.264 134.595 380.678 132.047 382.343C131.117 382.949 130.073 383.239 129.04 383.239Z" fill="#1E1E1E"/>
<path d="M110.204 134.462V122.899L100.379 134.462H110.204ZM110.204 142.38H91.6089V133.985L110.204 111.884H119.1V134.462H123.712V142.38H119.1V149.248H110.204V142.38Z" fill="#4A3AFF"/>
<path d="M137.017 130.753C137.017 135.431 137.432 138.626 138.259 140.339C139.085 142.05 140.284 142.908 141.855 142.908C142.89 142.908 143.789 142.544 144.549 141.817C145.308 141.09 145.869 139.941 146.227 138.37C146.587 136.801 146.765 134.354 146.765 131.029C146.765 126.15 146.353 122.871 145.526 121.193C144.699 119.514 143.458 118.674 141.804 118.674C140.116 118.674 138.897 119.53 138.146 121.243C137.395 122.954 137.017 126.125 137.017 130.753ZM126.894 130.728C126.894 123.745 128.151 118.857 130.666 116.068C133.179 113.278 137.011 111.884 142.156 111.884C144.627 111.884 146.657 112.188 148.245 112.798C149.833 113.407 151.127 114.201 152.13 115.178C153.132 116.156 153.921 117.183 154.497 118.26C155.073 119.338 155.538 120.594 155.888 122.032C156.573 124.772 156.915 127.628 156.915 130.603C156.915 137.268 155.787 142.147 153.533 145.237C151.277 148.329 147.393 149.874 141.879 149.874C138.788 149.874 136.291 149.38 134.387 148.395C132.483 147.409 130.92 145.965 129.7 144.06C128.815 142.707 128.126 140.857 127.633 138.509C127.14 136.161 126.894 133.567 126.894 130.728Z" fill="#4A3AFF"/>
<path d="M171.25 130.753C171.25 135.431 171.664 138.626 172.491 140.339C173.318 142.05 174.516 142.908 176.087 142.908C177.123 142.908 178.019 142.544 178.781 141.817C179.541 141.09 180.1 139.941 180.46 138.37C180.818 136.801 180.998 134.354 180.998 131.029C180.998 126.15 180.585 122.871 179.758 121.193C178.932 119.514 177.69 118.674 176.036 118.674C174.349 118.674 173.13 119.53 172.378 121.243C171.626 122.954 171.25 126.125 171.25 130.753ZM161.126 130.728C161.126 123.745 162.383 118.857 164.898 116.068C167.412 113.278 171.241 111.884 176.387 111.884C178.86 111.884 180.89 112.188 182.477 112.798C184.063 113.407 185.36 114.201 186.362 115.178C187.364 116.156 188.154 117.183 188.73 118.26C189.306 119.338 189.769 120.594 190.121 122.032C190.805 124.772 191.148 127.628 191.148 130.603C191.148 137.268 190.02 142.147 187.765 145.237C185.509 148.329 181.626 149.874 176.112 149.874C173.02 149.874 170.524 149.38 168.619 148.395C166.714 147.409 165.152 145.965 163.932 144.06C163.046 142.707 162.357 140.857 161.866 138.509C161.372 136.161 161.126 133.567 161.126 130.728Z" fill="#4A3AFF"/>
<path d="M214.104 112.51H244.526V120.352H225.481V126.192H243.147V133.685H225.481V140.927H245.078V149.247H214.104V112.51Z" fill="#1E1E1E"/>
<path d="M262.744 127.395H267.531C268.048 127.395 269.051 127.228 270.539 126.892C271.291 126.742 271.905 126.359 272.381 125.741C272.856 125.123 273.095 124.413 273.095 123.611C273.095 122.425 272.718 121.513 271.966 120.879C271.216 120.244 269.803 119.927 267.732 119.927H262.744V127.395ZM251.343 149.247V112.51H270.264C273.771 112.51 276.452 112.809 278.307 113.412C280.162 114.012 281.657 115.127 282.793 116.757C283.928 118.386 284.497 120.369 284.497 122.707C284.497 124.746 284.062 126.505 283.194 127.983C282.324 129.461 281.128 130.662 279.607 131.579C278.638 132.164 277.308 132.649 275.62 133.034C276.973 133.485 277.957 133.937 278.575 134.387C278.993 134.688 279.599 135.333 280.391 136.318C281.185 137.306 281.714 138.067 281.982 138.602L287.479 149.247H274.652L268.584 138.02C267.815 136.568 267.131 135.622 266.53 135.187C265.711 134.621 264.783 134.336 263.747 134.336H262.744V149.247H251.343Z" fill="#1E1E1E"/>
<path d="M302.664 127.395H307.451C307.968 127.395 308.971 127.228 310.458 126.892C311.21 126.742 311.824 126.359 312.3 125.741C312.776 125.123 313.014 124.413 313.014 123.611C313.014 122.425 312.638 121.513 311.887 120.879C311.135 120.244 309.723 119.927 307.651 119.927H302.664V127.395ZM291.262 149.247V112.51H310.183C313.691 112.51 316.372 112.809 318.227 113.412C320.082 114.012 321.577 115.127 322.713 116.757C323.848 118.386 324.416 120.369 324.416 122.707C324.416 124.746 323.982 126.505 323.112 127.983C322.244 129.461 321.048 130.662 319.528 131.579C318.558 132.164 317.229 132.649 315.54 133.034C316.892 133.485 317.877 133.937 318.495 134.387C318.913 134.688 319.518 135.333 320.312 136.318C321.104 137.306 321.634 138.067 321.901 138.602L327.399 149.247H314.572L308.504 138.02C307.735 136.568 307.051 135.622 306.449 135.187C305.63 134.621 304.703 134.336 303.667 134.336H302.664V149.247H291.262Z" fill="#1E1E1E"/>
<path d="M340.079 130.953C340.079 134.662 340.768 137.327 342.147 138.948C343.525 140.568 345.4 141.38 347.773 141.38C350.212 141.38 352.1 140.585 353.435 138.998C354.772 137.411 355.441 134.563 355.441 130.452C355.441 126.995 354.743 124.467 353.348 122.871C351.954 121.276 350.061 120.479 347.673 120.479C345.382 120.479 343.546 121.289 342.159 122.909C340.772 124.53 340.079 127.211 340.079 130.953ZM328.728 130.903C328.728 124.906 330.398 120.237 333.739 116.895C337.08 113.553 341.734 111.884 347.698 111.884C353.812 111.884 358.523 113.525 361.831 116.808C365.139 120.089 366.793 124.69 366.793 130.603C366.793 134.896 366.071 138.417 364.626 141.165C363.181 143.914 361.092 146.052 358.361 147.58C355.63 149.11 352.225 149.874 348.148 149.874C344.006 149.874 340.576 149.213 337.861 147.894C335.146 146.574 332.945 144.487 331.258 141.63C329.57 138.772 328.728 135.197 328.728 130.903Z" fill="#1E1E1E"/>
<path d="M384.461 127.395H389.246C389.764 127.395 390.767 127.228 392.254 126.892C393.006 126.742 393.62 126.359 394.095 125.741C394.572 125.123 394.811 124.413 394.811 123.611C394.811 122.425 394.434 121.513 393.683 120.879C392.931 120.244 391.519 119.927 389.447 119.927H384.461V127.395ZM373.058 149.247V112.51H391.979C395.488 112.51 398.168 112.809 400.023 113.412C401.877 114.012 403.372 115.127 404.508 116.757C405.644 118.386 406.212 120.369 406.212 122.707C406.212 124.746 405.777 126.505 404.909 127.983C404.039 129.461 402.844 130.662 401.324 131.579C400.353 132.164 399.024 132.649 397.336 133.034C398.688 133.485 399.673 133.937 400.291 134.387C400.709 134.688 401.313 135.333 402.107 136.318C402.9 137.306 403.429 138.067 403.697 138.602L409.194 149.247H396.367L390.299 138.02C389.531 136.568 388.845 135.622 388.245 135.187C387.425 134.621 386.498 134.336 385.463 134.336H384.461V149.247H373.058Z" fill="#1E1E1E"/>
</svg>
